PathFileType	4	(X/Y/Z)	/Users/itak/Documents/Research/Walk-IL/dataset/trc/00553_00009.trc
DataRate	CameraRate	NumFrames	NumMarkers	Units	OrigDataRate	OrigDataStartFrame	OrigNumFrames
100.000000	100.000000	4	53	mm	100.000000	181	485
Frame#	Time	RPSI			LPSI			L3			STRN			T10			C7			CLAV			RBAK			LBAK			LSHO			LUPA			LAEL			LAOL			LWTS			LWPS			LFRA			LIFD			LHPS			LHTS			RSHO			RUPA			RAEL			RAOL			RWTS			RWPS			RFRA			RIFD			RHTS			RHPS			RBHD			LFHD			RFHD			LBHD			LHIP			RHIP			RASI			LASI			LKNE			LTHI			LANK			LTIP			LTOE			LMT1			LMT5			LHEE			RKNE			RTHI			RANK			RTIP			RTOE			RMT1			RMT5			RHEE			
		X1	Y1	Z1	X2	Y2	Z2	X3	Y3	Z3	X4	Y4	Z4	X5	Y5	Z5	X6	Y6	Z6	X7	Y7	Z7	X8	Y8	Z8	X9	Y9	Z9	X10	Y10	Z10	X11	Y11	Z11	X12	Y12	Z12	X13	Y13	Z13	X14	Y14	Z14	X15	Y15	Z15	X16	Y16	Z16	X17	Y17	Z17	X18	Y18	Z18	X19	Y19	Z19	X20	Y20	Z20	X21	Y21	Z21	X22	Y22	Z22	X23	Y23	Z23	X24	Y24	Z24	X25	Y25	Z25	X26	Y26	Z26	X27	Y27	Z27	X28	Y28	Z28	X29	Y29	Z29	X30	Y30	Z30	X31	Y31	Z31	X32	Y32	Z32	X33	Y33	Z33	X34	Y34	Z34	X35	Y35	Z35	X36	Y36	Z36	X37	Y37	Z37	X38	Y38	Z38	X39	Y39	Z39	X40	Y40	Z40	X41	Y41	Z41	X42	Y42	Z42	X43	Y43	Z43	X44	Y44	Z44	X45	Y45	Z45	X46	Y46	Z46	X47	Y47	Z47	X48	Y48	Z48	X49	Y49	Z49	X50	Y50	Z50	X51	Y51	Z51	X52	Y52	Z52	X53	Y53	Z53	

182	1.81	-797.3430786132812	979.3955078125	282.8621215820312	-791.7612915039062	982.4536743164062	149.1182098388672	-788.8621215820312	1083.72412109375	206.2978057861328	-533.1370239257812	1248.339111328125	205.3077392578125	-782.807373046875	1208.834838867188	202.8639221191406	-705.5132446289062	1475.64501953125	219.4788055419922	-540.6489868164062	1361.159301757812	209.7140197753906	-790.042236328125	1358.08056640625	300.751708984375	-743.2535400390625	1428.766845703125	125.4845352172852	-640.6463623046875	1446.736694335938	47.58151245117188	-655.3338012695312	1322.868896484375	-36.39786148071289	-643.197021484375	1098.125366210938	-53.86155319213867	-737.4193725585938	1095.44384765625	-17.06842613220215	-566.4716186523438	854.9168701171875	13.65362930297852	-598.3600463867188	831.0580444335938	-63.65338134765625	-622.3314208984375	1011.241638183594	-55.16001510620117	-573.5176391601562	684.24658203125	12.3565502166748	-593.6394653320312	771.2241821289062	-52.33403778076172	-549.7713623046875	776.733154296875	-0.6719881296157837	-652.734375	1430.17822265625	374.2188720703125	-681.2733764648438	1367.128295898438	439.2431640625	-728.7257080078125	1083.500854492188	486.6902770996094	-783.7809448242188	1074.184692382812	456.0287170410156	-630.050048828125	843.0609741210938	462.3381652832031	-681.8864135742188	832.377685546875	525.9852905273438	-727.4776611328125	1027.317016601562	495.5511779785156	-649.1015625	669.7731323242188	472.5128784179688	-621.316650390625	747.8988647460938	479.9951477050781	-678.108154296875	755.8570556640625	525.1693725585938	-615.0493774414062	1643.840942382812	289.4595947265625	-454.0768432617188	1659.5234375	158.9902496337891	-475.4735717773438	1655.371337890625	301.4295349121094	-583.4595947265625	1646.392944335938	126.5898513793945	-672.1448974609375	898.8072509765625	17.39878273010254	-661.98388671875	920.6693725585938	403.3871154785156	-583.5097045898438	946.2155151367188	336.4978332519531	-590.7999267578125	920.3894653320312	61.69108200073242	-747.01806640625	466.5086975097656	87.99900054931641	-703.8642578125	623.4208374023438	49.36656951904297	-953.0194091796875	33.48545455932617	110.9668807983398	-879.5726318359375	244.9637908935547	91.95088958740234	-744.4031982421875	37.94872283935547	169.7131195068359	-815.0765380859375	41.55319976806641	204.0521240234375	-831.4213256835938	33.30255889892578	96.51541137695312	-1023.338134765625	45.14934921264648	164.5463256835938	-468.0026550292969	517.2542724609375	375.4810791015625	-581.7322998046875	784.15625	412.0595397949219	-422.8182373046875	38.53297805786133	370.1829223632812	-424.8606567382812	377.4231262207031	367.7291870117188	-219.4829406738281	109.6173553466797	331.510986328125	-277.6588745117188	89.78176879882812	289.4351501464844	-297.2151184082031	71.84977722167969	390.2868347167969	-475.1031799316406	23.65152168273926	313.4290161132812	
183	1.82	-789.3209838867188	977.9226684570312	285.1524047851562	-784.275146484375	980.9774780273438	151.4138946533203	-781.4822998046875	1082.288940429688	208.5164337158203	-525.4815063476562	1247.082763671875	206.7010192871094	-775.1842651367188	1207.297241210938	204.7279968261719	-698.196533203125	1474.231323242188	221.5186920166016	-533.3026733398438	1359.82958984375	211.3818664550781	-782.495361328125	1356.387817382812	302.6981506347656	-735.9451904296875	1427.458374023438	127.4823226928711	-633.4749145507812	1445.60205078125	49.44499969482422	-648.4198608398438	1321.796264648438	-34.74724578857422	-637.046142578125	1097.059936523438	-52.47329330444336	-731.1925659179688	1094.682861328125	-15.31956100463867	-561.5419921875	853.2240600585938	14.10680770874023	-593.834228515625	829.7424926757812	-63.1071662902832	-616.7260131835938	1010.048156738281	-54.06194305419922	-569.5222778320312	682.5848388671875	12.41870403289795	-589.3623657226562	769.8515014648438	-51.98714447021484	-545.339599609375	774.9465942382812	-0.4221341907978058	-645.1395874023438	1428.535766601562	376.1104431152344	-673.64453125	1365.401489257812	441.1028137207031	-721.4373168945312	1081.802124023438	488.2978820800781	-776.2084350585938	1072.59521484375	457.3553771972656	-623.604248046875	841.0048828125	464.1446533203125	-675.451904296875	830.5581665039062	527.745849609375	-720.3645629882812	1025.630859375	497.1446533203125	-643.2232666015625	667.7933959960938	474.3744506835938	-615.0438842773438	745.9541625976562	481.829345703125	-671.9655151367188	754.0385131835938	526.971923828125	-607.9600830078125	1642.350830078125	291.6459045410156	-447.1176147460938	1658.522705078125	161.0545349121094	-468.4048156738281	1654.070068359375	303.5140075683594	-576.5293579101562	1645.245971679688	128.7536773681641	-664.3944091796875	897.0513305664062	19.70541191101074	-653.0855102539062	919.3594970703125	404.9002075195312	-575.1480712890625	944.8595581054688	337.7004699707031	-583.5958251953125	919.083740234375	62.85439300537109	-740.7415771484375	465.5350036621094	88.91599273681641	-697.4187622070312	622.4803466796875	50.41299438476562	-952.7608032226562	34.30908584594727	110.8478012084961	-876.373291015625	245.3820037841797	92.330322265625	-744.3092651367188	37.83369445800781	169.6311340332031	-814.9740600585938	41.70268630981445	203.8105163574219	-831.4215698242188	33.20276260375977	96.31629943847656	-1023.042358398438	47.39912033081055	164.1241149902344	-459.894775390625	515.586669921875	375.7558288574219	-572.8717651367188	782.7315673828125	413.1817626953125	-419.37158203125	37.15729904174805	369.9248046875	-417.6856994628906	375.3388671875	367.5204467773438	-215.1421356201172	104.1153793334961	329.6850891113281	-273.8429870605469	85.21559143066406	287.8438110351562	-292.9575805664062	67.66231536865234	388.7965698242188	-472.4029846191406	23.47405815124512	313.5246276855469	
184	1.83	-781.1287841796875	976.6211547851562	287.5216064453125	-776.56640625	979.6085815429688	153.7809906005859	-773.9478149414062	1080.953002929688	210.8273010253906	-517.6442260742188	1245.975341796875	208.1537017822266	-767.4130859375	1205.8603515625	206.6806182861328	-690.7818603515625	1472.9296875	223.6372222900391	-525.8233032226562	1358.637817382812	213.0998077392578	-774.8214111328125	1354.797119140625	304.7450866699219	-728.5517578125	1426.232299804688	129.5751953125	-626.2359008789062	1444.572509765625	51.3756217956543	-641.44189453125	1320.820190429688	-33.00633239746094	-630.8302001953125	1096.12109375	-51.05883407592773	-724.8742065429688	1094.016723632812	-13.48705196380615	-556.520263671875	851.6414794921875	14.50759410858154	-589.2583618164062	828.558837890625	-62.60491943359375	-611.0550537109375	1008.970336914062	-52.96141052246094	-565.408203125	681.0453491210938	12.39468574523926	-585.0167846679688	768.6077880859375	-51.71767425537109	-540.8130493164062	773.283935546875	-0.2624616324901581	-637.4189453125	1426.989624023438	378.0758972167969	-665.8646850585938	1363.751708984375	443.0384216308594	-713.902587890625	1080.150756835938	489.9308776855469	-768.4154052734375	1071.063354492188	458.6880798339844	-616.90673828125	839.0014038085938	465.961669921875	-668.7679443359375	828.7939453125	529.5151977539062	-712.9976196289062	1024.005249023438	498.7553405761719	-637.1050415039062	665.8744506835938	476.2419128417969	-608.5123901367188	744.055908203125	483.6715393066406	-665.5673217773438	752.2777099609375	528.7860717773438	-600.7429809570312	1640.994873046875	293.8880004882812	-440.0390319824219	1657.641479492188	163.1571960449219	-461.2166137695312	1652.892211914062	305.6470642089844	-569.4979858398438	1644.238037109375	130.9759216308594	-656.4537353515625	895.4077758789062	22.08721542358398	-644.0807495117188	918.1820068359375	406.4736022949219	-566.6837768554688	943.6642456054688	339.0429077148438	-576.1250610351562	917.8501586914062	64.18114471435547	-734.2353515625	464.5596923828125	89.90157318115234	-690.634765625	621.6050415039062	51.55227661132812	-952.4585571289062	35.41771697998047	110.6757202148438	-873.0003662109375	245.9939270019531	92.72234344482422	-744.1765747070312	37.69139862060547	169.5386657714844	-814.8182983398438	41.88360214233398	203.5485992431641	-831.382080078125	33.09751892089844	96.12710571289062	-1022.664123535156	49.96612167358398	163.6587829589844	-451.6174926757812	514.1055297851562	375.8983459472656	-563.8305053710938	781.4270629882812	414.2894287109375	-416.7966613769531	36.09767913818359	369.5642700195312	-410.5350952148438	373.3553466796875	367.1779174804688	-211.3778076171875	97.86823272705078	327.9042663574219	-270.6118774414062	80.1297607421875	286.2448425292969	-289.48388671875	63.18721008300781	387.2587585449219	-470.48779296875	23.70804405212402	313.4464111328125	
185	1.84	-772.7979125976562	975.52880859375	289.9219665527344	-768.6377563476562	978.37646484375	156.1746826171875	-766.2496948242188	1079.753051757812	213.1834259033203	-509.6393127441406	1245.046752929688	209.6764373779297	-759.50537109375	1204.571166992188	208.6996459960938	-683.2698364257812	1471.773193359375	225.8270874023438	-518.2114868164062	1357.6171875	214.866455078125	-767.0323486328125	1353.352294921875	306.8929138183594	-721.0790405273438	1425.121459960938	131.7653503417969	-618.9334106445312	1443.681762695312	53.37145233154297	-634.4215698242188	1319.97607421875	-31.17159461975098	-624.5636596679688	1095.341186523438	-49.61306762695312	-718.465087890625	1093.479125976562	-11.5537748336792	-551.4075927734375	850.2015991210938	14.85548114776611	-584.6357421875	827.5462036132812	-62.14854431152344	-605.3230590820312	1008.04541015625	-51.85429000854492	-561.1961059570312	679.6538696289062	12.30968379974365	-580.6099243164062	767.5348510742188	-51.52196502685547	-536.17822265625	771.7872314453125	-0.2081291824579239	-629.58447265625	1425.573364257812	380.1119995117188	-657.938720703125	1362.214721679688	445.0464782714844	-706.1118774414062	1078.582153320312	491.5882568359375	-760.4166259765625	1069.623168945312	460.0502319335938	-609.9423828125	837.0853881835938	467.7759094238281	-661.825439453125	827.1194458007812	531.2919311523438	-705.365234375	1022.474060058594	500.3849792480469	-630.754638671875	664.0513305664062	478.1142578125	-601.7156982421875	742.237548828125	485.5032348632812	-658.902099609375	750.6075439453125	530.6024780273438	-593.3970947265625	1639.808837890625	296.1852111816406	-432.8417053222656	1656.899169921875	165.2937164306641	-453.9025268554688	1651.861450195312	307.8257141113281	-562.3587036132812	1643.39794921875	133.2522888183594	-648.3585815429688	893.9332885742188	24.49173545837402	-635.0386352539062	917.191650390625	408.0887145996094	-558.1416625976562	942.6993408203125	340.5368041992188	-568.364990234375	916.7147216796875	65.67792510986328	-727.4978637695312	463.5771789550781	90.97247314453125	-683.4598999023438	620.790771484375	52.82201385498047	-952.08642578125	36.85567855834961	110.4416351318359	-869.4214477539062	246.8217926025391	93.13359832763672	-744.0004272460938	37.52071380615234	169.4382171630859	-814.5958862304688	42.09835433959961	203.2626647949219	-831.2872924804688	32.99720764160156	95.95329284667969	-1022.176940917969	52.87784957885742	163.1501007080078	-443.1298522949219	512.9154663085938	375.9239807128906	-554.6383666992188	780.32177734375	415.3750610351562	-414.9085388183594	35.39884567260742	369.165283203125	-403.3348083496094	371.5860900878906	366.736572265625	-208.0433044433594	91.10830688476562	326.2777099609375	-267.8381958007812	74.73925018310547	284.7663879394531	-286.6559753417969	58.64657211303711	385.8090209960938	-469.1349182128906	24.33531761169434	313.2514343261719	
